<svg width="1600" height="900" viewBox="0 0 1600 900" fill="none" xmlns="http://www.w3.org/2000/svg">
  <rect width="1600" height="900" rx="36" fill="#F7F3EA"/>
  <text x="800" y="92" text-anchor="middle" font-family="Georgia, 'Times New Roman', serif" font-size="48" font-weight="700" fill="#1F2933">JUDIAgent Autonomous Workflow</text>
  <text x="800" y="138" text-anchor="middle" font-family="Georgia, 'Times New Roman', serif" font-size="28" fill="#52606D">ReAct-style tool loop for open-ended JUDI development assistance</text>

  <rect x="88" y="326" width="236" height="118" rx="24" fill="#E6EEF5" stroke="#243B53" stroke-width="3"/>
  <text x="206" y="386" text-anchor="middle" font-family="Arial, sans-serif" font-size="34" font-weight="700" fill="#102A43">User Goal</text>
  <text x="206" y="422" text-anchor="middle" font-family="Arial, sans-serif" font-size="22" fill="#486581">question, task, or bug</text>

  <rect x="384" y="284" width="292" height="202" rx="26" fill="#E7F4EC" stroke="#243B53" stroke-width="3"/>
  <text x="530" y="344" text-anchor="middle" font-family="Arial, sans-serif" font-size="38" font-weight="700" fill="#102A43">Reason + Plan</text>
  <text x="530" y="390" text-anchor="middle" font-family="Arial, sans-serif" font-size="24" fill="#243B53">choose the next action</text>
  <text x="530" y="424" text-anchor="middle" font-family="Arial, sans-serif" font-size="24" fill="#243B53">decide which tools to call</text>
  <text x="530" y="458" text-anchor="middle" font-family="Arial, sans-serif" font-size="24" fill="#486581">LangGraph ReAct node</text>

  <rect x="738" y="206" width="316" height="138" rx="24" fill="#FCE7D8" stroke="#243B53" stroke-width="3"/>
  <text x="896" y="264" text-anchor="middle" font-family="Arial, sans-serif" font-size="36" font-weight="700" fill="#102A43">Retrieval Tools</text>
  <text x="896" y="306" text-anchor="middle" font-family="Arial, sans-serif" font-size="24" fill="#243B53">examples, docs, code search</text>

  <rect x="738" y="390" width="316" height="138" rx="24" fill="#FCE7D8" stroke="#243B53" stroke-width="3"/>
  <text x="896" y="448" text-anchor="middle" font-family="Arial, sans-serif" font-size="36" font-weight="700" fill="#102A43">Execution Tools</text>
  <text x="896" y="490" text-anchor="middle" font-family="Arial, sans-serif" font-size="24" fill="#243B53">Julia, shell, files, lint</text>

  <rect x="1120" y="284" width="298" height="202" rx="26" fill="#F2E8F5" stroke="#243B53" stroke-width="3"/>
  <text x="1269" y="344" text-anchor="middle" font-family="Arial, sans-serif" font-size="38" font-weight="700" fill="#102A43">Observe + Update</text>
  <text x="1269" y="390" text-anchor="middle" font-family="Arial, sans-serif" font-size="24" fill="#243B53">interpret tool outputs</text>
  <text x="1269" y="424" text-anchor="middle" font-family="Arial, sans-serif" font-size="24" fill="#243B53">decide whether to continue</text>
  <text x="1269" y="458" text-anchor="middle" font-family="Arial, sans-serif" font-size="24" fill="#486581">multi-step control loop</text>

  <rect x="1220" y="618" width="98" height="88" rx="20" fill="#E7F4EC" stroke="#243B53" stroke-width="3"/>
  <text x="1269" y="672" text-anchor="middle" font-family="Arial, sans-serif" font-size="38" font-weight="700" fill="#102A43">DONE</text>

  <path d="M324 385 L384 385" stroke="#243B53" stroke-width="4"/>
  <polygon points="384,385 369,377 369,393" fill="#243B53"/>
  <path d="M676 385 L738 275" stroke="#243B53" stroke-width="4"/>
  <polygon points="738,275 725,280 733,291" fill="#243B53"/>
  <path d="M676 385 L738 459" stroke="#243B53" stroke-width="4"/>
  <polygon points="738,459 724,455 731,444" fill="#243B53"/>
  <path d="M1054 275 L1120 346" stroke="#243B53" stroke-width="4"/>
  <polygon points="1120,346 1106,341 1118,332" fill="#243B53"/>
  <path d="M1054 459 L1120 424" stroke="#243B53" stroke-width="4"/>
  <polygon points="1120,424 1104,423 1111,436" fill="#243B53"/>
  <path d="M1269 486 L1269 618" stroke="#243B53" stroke-width="4"/>
  <polygon points="1269,618 1261,603 1277,603" fill="#243B53"/>
  <path d="M1180 526 C1098 670 748 706 592 538" stroke="#B26A00" stroke-width="4" stroke-dasharray="12 10" fill="none"/>
  <polygon points="592,538 598,553 609,543" fill="#B26A00"/>

  <text x="800" y="790" text-anchor="middle" font-family="Arial, sans-serif" font-size="28" fill="#7C5E10">Tool observations and failures feed back into reasoning until the agent decides the task is complete.</text>
</svg>
