<svg xmlns="http://www.w3.org/2000/svg" width="1460" height="860" viewBox="0 0 1460 860" fill="none">
  <rect width="1460" height="860" rx="28" fill="#08111F"/>
  <rect x="34" y="34" width="1392" height="792" rx="28" fill="#0E1B2F" stroke="#1D4ED8" stroke-width="3"/>
  <rect x="34" y="34" width="1392" height="72" rx="28" fill="#0B1628"/>
  <circle cx="82" cy="70" r="9" fill="#EF4444"/>
  <circle cx="112" cy="70" r="9" fill="#F59E0B"/>
  <circle cx="142" cy="70" r="9" fill="#10B981"/>
  <text x="190" y="79" fill="#93C5FD" font-family="monospace" font-size="38">JUDIAgent Console</text>

  <text x="86" y="185" fill="#67E8F9" font-family="monospace" font-size="102" font-weight="700">JUDIAgent</text>
  <text x="88" y="236" fill="#E2E8F0" font-family="monospace" font-size="42">JUDI seismic coding copilot</text>

  <rect x="74" y="278" width="1312" height="132" rx="22" fill="#111F35" stroke="#2563EB" stroke-width="3"/>
  <text x="112" y="330" fill="#60A5FA" font-family="monospace" font-size="40">workflow</text>
  <text x="112" y="378" fill="#E2E8F0" font-family="monospace" font-size="40">retrieve -&gt; code -&gt; check -&gt; refine</text>

  <rect x="74" y="450" width="626" height="300" rx="22" fill="#0A172A" stroke="#0EA5E9" stroke-width="3"/>
  <text x="112" y="508" fill="#67E8F9" font-family="monospace" font-size="40">tools</text>
  <text x="112" y="578" fill="#E2E8F0" font-family="monospace" font-size="36">judi examples</text>
  <text x="112" y="634" fill="#E2E8F0" font-family="monospace" font-size="36">function docs</text>
  <text x="112" y="690" fill="#E2E8F0" font-family="monospace" font-size="36">julia snippet run</text>

  <rect x="760" y="450" width="626" height="300" rx="22" fill="#0A172A" stroke="#F97316" stroke-width="3"/>
  <text x="798" y="508" fill="#FDBA74" font-family="monospace" font-size="40">outputs</text>
  <text x="798" y="578" fill="#E2E8F0" font-family="monospace" font-size="36">task script</text>
  <text x="798" y="634" fill="#E2E8F0" font-family="monospace" font-size="36">paper figures</text>
  <text x="798" y="690" fill="#E2E8F0" font-family="monospace" font-size="36">derived data</text>
</svg>
