<svg xmlns="http://www.w3.org/2000/svg" width="1400" height="880" viewBox="0 0 1400 880" fill="none">
  <rect width="1400" height="880" rx="32" fill="#08111F"/>
  <rect x="70" y="58" width="1260" height="764" rx="28" fill="#0E1B2F" stroke="#1D4ED8" stroke-width="3"/>
  <rect x="70" y="58" width="1260" height="64" rx="28" fill="#0B1628"/>
  <circle cx="112" cy="90" r="9" fill="#EF4444"/>
  <circle cx="142" cy="90" r="9" fill="#F59E0B"/>
  <circle cx="172" cy="90" r="9" fill="#10B981"/>
  <text x="224" y="98" fill="#93C5FD" font-family="monospace" font-size="34">JUDIAgent Console</text>

  <text x="130" y="208" fill="#67E8F9" font-family="monospace" font-size="82" font-weight="700">JUDIAgent</text>
  <text x="130" y="258" fill="#E2E8F0" font-family="monospace" font-size="36">Seismic coding copilot for JUDI.jl</text>

  <rect x="120" y="314" width="1160" height="132" rx="20" fill="#111F35" stroke="#2563EB" stroke-width="3"/>
  <text x="154" y="362" fill="#60A5FA" font-family="monospace" font-size="34">workflow</text>
  <text x="154" y="408" fill="#E2E8F0" font-family="monospace" font-size="34">retrieve -&gt; generate -&gt; validate -&gt; refine</text>

  <rect x="120" y="498" width="540" height="220" rx="20" fill="#0A172A" stroke="#0EA5E9" stroke-width="3"/>
  <text x="154" y="548" fill="#67E8F9" font-family="monospace" font-size="34">tools</text>
  <text x="154" y="598" fill="#E2E8F0" font-family="monospace" font-size="32">search_judi_examples</text>
  <text x="154" y="642" fill="#E2E8F0" font-family="monospace" font-size="32">lookup_function_docs</text>
  <text x="154" y="686" fill="#E2E8F0" font-family="monospace" font-size="32">execute_julia_snippet</text>

  <rect x="742" y="498" width="538" height="220" rx="20" fill="#0A172A" stroke="#F97316" stroke-width="3"/>
  <text x="776" y="548" fill="#FDBA74" font-family="monospace" font-size="34">outputs</text>
  <text x="776" y="598" fill="#E2E8F0" font-family="monospace" font-size="32">scripts/task_name.jl</text>
  <text x="776" y="642" fill="#E2E8F0" font-family="monospace" font-size="34">outputs/figures/...</text>
  <text x="776" y="686" fill="#E2E8F0" font-family="monospace" font-size="34">outputs/data/...</text>
</svg>
